<svg width="282" height="222" viewBox="0 0 282 222" fill="none" xmlns="http://www.w3.org/2000/svg">
<g filter="url(#filter0_d_1001_1541)">
<g clip-path="url(#clip0_1001_1541)">
<rect x="102" y="84" width="80" height="80" rx="12" fill="#B100A8"/>
<path d="M160.257 102.913H123.746C121.372 102.913 119.441 104.844 119.441 107.218V128.961C119.441 131.334 121.372 133.266 123.746 133.266H139.121V137.65L131.073 139.701C129.86 140.01 129.013 141.1 129.013 142.352C129.013 143.86 130.24 145.087 131.748 145.087H152.254C153.763 145.087 154.99 143.86 154.99 142.352C154.99 141.1 154.143 140.01 152.93 139.701L144.881 137.65V133.266H160.257C162.631 133.266 164.561 131.334 164.561 128.961V107.218C164.561 104.844 162.631 102.913 160.257 102.913ZM152.456 141.561C152.818 141.653 153.07 141.979 153.07 142.352C153.07 142.802 152.704 143.167 152.254 143.167H131.748C131.299 143.167 130.933 142.802 130.933 142.352C130.933 141.979 131.185 141.653 131.547 141.561L139.665 139.493C140.475 139.286 141.041 138.557 141.041 137.721V133.266H142.961L142.927 141.814L144.318 139.484C144.325 139.486 144.331 139.491 144.339 139.493L152.456 141.561ZM162.641 128.961C162.641 130.276 161.572 131.346 160.257 131.346H123.746C122.431 131.346 121.361 130.276 121.361 128.961V107.218C121.361 105.903 122.431 104.833 123.746 104.833H160.257C161.572 104.833 162.641 105.903 162.641 107.218V128.961ZM142.001 110.845C134.839 110.845 129.013 116.672 129.013 123.834C129.013 124.365 129.443 124.794 129.973 124.794H137.653C138.183 124.794 138.613 124.365 138.613 123.834C138.613 121.966 140.133 120.445 142.001 120.445C143.87 120.445 145.39 121.966 145.39 123.834C145.39 124.365 145.82 124.794 146.35 124.794H154.03C154.561 124.794 154.99 124.365 154.99 123.834C154.99 116.672 149.163 110.845 142.001 110.845ZM136.78 122.874H130.974C131.164 120.677 132.004 118.666 133.292 117.023L137.608 120.888C137.21 121.48 136.913 122.146 136.78 122.874ZM141.041 118.613C140.271 118.754 139.569 119.078 138.952 119.514L134.601 115.617C136.34 114.049 138.575 113.024 141.041 112.811V118.613ZM145.027 119.497C144.416 119.07 143.722 118.753 142.961 118.613V112.811C145.425 113.024 147.658 114.047 149.397 115.612L145.027 119.497ZM147.223 122.874C147.088 122.137 146.785 121.463 146.378 120.865L150.706 117.017C151.997 118.662 152.839 120.674 153.029 122.874H147.223Z" fill="white"/>
<g opacity="0.66" filter="url(#filter1_f_1001_1541)">
<circle cx="183" cy="84" r="35" fill="white"/>
</g>
</g>
</g>
<foreignObject x="110" y="0" width="64" height="64"><div xmlns="http://www.w3.org/1999/xhtml" style="backdrop-filter:blur(0px);clip-path:url(#bgblur_1_1001_1541_clip_path);height:100%;width:100%"></div></foreignObject><g filter="url(#filter2_d_1001_1541)" data-figma-bg-blur-radius="0">
<path d="M114 19.2C114 12.4794 114 9.11905 115.308 6.55211C116.458 4.29417 118.294 2.4584 120.552 1.30792C123.119 0 126.479 0 133.2 0H150.8C157.521 0 160.881 0 163.448 1.30792C165.706 2.4584 167.542 4.29417 168.692 6.55211C170 9.11905 170 12.4794 170 19.2V36.8C170 43.5206 170 46.8809 168.692 49.4479C167.542 51.7058 165.706 53.5416 163.448 54.6921C160.881 56 157.521 56 150.8 56H133.2C126.479 56 123.119 56 120.552 54.6921C118.294 53.5416 116.458 51.7058 115.308 49.4479C114 46.8809 114 43.5206 114 36.8V19.2Z" fill="white" shape-rendering="crispEdges"/>
<path d="M138.968 28.0981L136.819 30.2469L138.968 32.3953C139.218 32.6453 139.218 33.0503 138.968 33.3003C138.843 33.4253 138.679 33.4878 138.515 33.4878C138.352 33.4878 138.188 33.4253 138.063 33.3003L135.462 30.6994C135.342 30.5794 135.274 30.4166 135.274 30.2469C135.274 30.0772 135.342 29.9144 135.462 29.7944L138.063 27.1931C138.313 26.9431 138.718 26.9431 138.968 27.1931C139.218 27.4431 139.218 27.8481 138.968 28.0981ZM145.939 27.1931C145.689 26.9431 145.284 26.9431 145.034 27.1931C144.784 27.4431 144.784 27.8481 145.034 28.0981L147.183 30.2469L145.034 32.3953C144.784 32.6453 144.784 33.0503 145.034 33.3003C145.159 33.4253 145.323 33.4878 145.487 33.4878C145.65 33.4878 145.814 33.4253 145.939 33.3003L148.54 30.6994C148.66 30.5794 148.728 30.4166 148.728 30.2469C148.728 30.0772 148.66 29.9144 148.54 29.7944L145.939 27.1931ZM142.001 27.0056C141.648 27.0056 141.361 27.2922 141.361 27.6456V32.8478C141.361 33.2012 141.648 33.4878 142.001 33.4878C142.354 33.4878 142.641 33.2012 142.641 32.8478V27.6456C142.641 27.2922 142.354 27.0056 142.001 27.0056ZM157.041 20.1984V35.8016C157.041 37.4603 155.689 38.8097 154.027 38.8097H129.975C128.313 38.8097 126.961 37.4603 126.961 35.8016V20.1984C126.961 18.5397 128.313 17.1903 129.975 17.1903H154.027C155.689 17.1903 157.041 18.5397 157.041 20.1984ZM128.241 20.1984V22.3081H155.761V20.1984C155.761 19.2456 154.983 18.4703 154.027 18.4703H129.975C129.019 18.4703 128.241 19.2456 128.241 20.1984ZM155.761 35.8016V23.5881H128.241V35.8016C128.241 36.7544 129.019 37.5297 129.975 37.5297H154.027C154.983 37.5297 155.761 36.7544 155.761 35.8016ZM149.232 20.5H150.512C150.573 20.5 150.623 20.45 150.623 20.3881C150.623 20.3262 150.573 20.2762 150.512 20.2762H149.232C149.17 20.2762 149.12 20.3262 149.12 20.3881C149.12 20.45 149.17 20.5 149.232 20.5ZM152.432 20.5H153.712C153.773 20.5 153.823 20.45 153.823 20.3881C153.823 20.3262 153.773 20.2762 153.712 20.2762H152.432C152.37 20.2762 152.32 20.3262 152.32 20.3881C152.32 20.45 152.37 20.5 152.432 20.5ZM146.032 20.5H147.312C147.373 20.5 147.423 20.45 147.423 20.3881C147.423 20.3262 147.373 20.2762 147.312 20.2762H146.032C145.97 20.2762 145.92 20.3262 145.92 20.3881C145.92 20.45 145.97 20.5 146.032 20.5Z" fill="#064F8E"/>
</g>
<foreignObject x="218" y="140" width="64" height="64"><div xmlns="http://www.w3.org/1999/xhtml" style="backdrop-filter:blur(0px);clip-path:url(#bgblur_2_1001_1541_clip_path);height:100%;width:100%"></div></foreignObject><g filter="url(#filter3_d_1001_1541)" data-figma-bg-blur-radius="0">
<path d="M222 159.2C222 152.479 222 149.119 223.308 146.552C224.458 144.294 226.294 142.458 228.552 141.308C231.119 140 234.479 140 241.2 140H258.8C265.521 140 268.881 140 271.448 141.308C273.706 142.458 275.542 144.294 276.692 146.552C278 149.119 278 152.479 278 159.2V176.8C278 183.521 278 186.881 276.692 189.448C275.542 191.706 273.706 193.542 271.448 194.692C268.881 196 265.521 196 258.8 196H241.2C234.479 196 231.119 196 228.552 194.692C226.294 193.542 224.458 191.706 223.308 189.448C222 186.881 222 183.521 222 176.8V159.2Z" fill="white" shape-rendering="crispEdges"/>
<g clip-path="url(#clip3_1001_1541)">
<path d="M241.27 176.988C240.735 176.379 240.794 175.451 241.403 174.915L244.05 172.585L245.991 174.79L243.343 177.12C242.734 177.656 241.806 177.597 241.27 176.988Z" fill="#DFF0FE" fill-opacity="0.09"/>
<path d="M242.841 179.519C242.305 178.91 242.364 177.982 242.973 177.446L245.621 175.116L247.561 177.322L244.914 179.651C244.305 180.187 243.377 180.128 242.841 179.519Z" fill="#DFF0FE" fill-opacity="0.09"/>
<path d="M245.526 181.073C244.99 180.464 245.05 179.536 245.659 179.001L248.306 176.671L250.247 178.876L247.599 181.206C246.99 181.742 246.062 181.682 245.526 181.073Z" fill="#DFF0FE" fill-opacity="0.09"/>
<path d="M264.398 167.476V175.419C264.398 176.177 263.677 176.729 262.945 176.531L259.054 175.477L250.619 174.14L252.782 170.856L250.587 170.3L248.315 172.002C247.54 172.584 246.433 172.431 245.851 171.65C245.614 171.33 245.492 170.959 245.492 170.594C245.492 170.056 245.742 169.532 246.203 169.186L249.099 167.008C250.584 165.892 252.391 165.288 254.248 165.288C255.214 165.288 256.173 165.452 257.084 165.771L260.06 166.815L263.066 166.338C263.765 166.227 264.398 166.768 264.398 167.476Z" fill="#DFF0FE" fill-opacity="0.09"/>
<path d="M257.693 172.034C252.835 172.565 250.717 169.653 250.717 169.653L248.926 170.876C247.989 171.515 246.711 171.273 246.073 170.336C245.799 169.934 245.903 169.386 246.304 169.112L250.827 166.022L257.693 172.034Z" fill="#DFF0FE" fill-opacity="0.09"/>
<path d="M264.413 166.114C264.014 165.773 263.489 165.624 262.969 165.707L260.122 166.158L257.3 165.169C256.649 164.94 255.975 164.795 255.294 164.717C256.4 163.468 257.077 161.832 257.077 160.037C257.077 156.135 253.903 152.961 250.001 152.961C246.099 152.961 242.925 156.135 242.925 160.037C242.925 161.8 243.577 163.411 244.648 164.651L236.608 165.301C235.684 165.377 234.961 166.161 234.961 167.087V174.277C234.961 174.882 235.262 175.441 235.767 175.774C236.272 176.106 236.904 176.162 237.461 175.924L241.042 174.382L240.982 174.435C240.559 174.807 240.306 175.321 240.27 175.884C240.235 176.446 240.42 176.988 240.792 177.411C241.086 177.746 241.472 177.969 241.898 178.067C241.871 178.181 241.849 178.296 241.842 178.415C241.805 178.977 241.991 179.52 242.363 179.942C242.735 180.365 243.249 180.618 243.812 180.654C243.858 180.657 243.903 180.658 243.949 180.658C244.166 180.658 244.377 180.618 244.58 180.554C244.656 180.899 244.808 181.224 245.048 181.496C245.42 181.919 245.934 182.172 246.497 182.208C246.542 182.211 246.588 182.212 246.634 182.212C247.147 182.212 247.636 182.029 248.024 181.687L248.074 181.643C248.473 181.955 248.879 182.26 249.293 182.555C249.785 182.866 250.385 183.039 250.868 183.039C251.111 183.039 251.325 182.996 251.482 182.903C251.555 182.859 251.855 182.66 251.968 182.562C252.247 182.322 252.455 182.022 252.585 181.671C252.62 181.577 252.697 181.461 252.799 181.446C253.312 181.37 253.76 181.161 254.13 180.827C254.397 180.586 254.605 180.294 254.75 179.959C254.792 179.864 254.891 179.793 254.997 179.784C255.541 179.737 256.035 179.528 256.426 179.181C256.705 178.933 256.918 178.629 257.063 178.276C257.122 178.128 257.237 178.032 257.37 178.016C257.823 177.965 258.237 177.807 258.598 177.547C259.107 177.183 259.405 176.691 259.565 176.278L262.781 177.149C262.938 177.191 263.097 177.212 263.254 177.212C263.642 177.212 264.02 177.086 264.338 176.842C264.785 176.501 265.041 175.982 265.041 175.419V167.476C265.041 166.951 264.812 166.455 264.413 166.114ZM250.001 154.241C253.197 154.241 255.797 156.841 255.797 160.037C255.797 163.233 253.197 165.834 250.001 165.834C246.805 165.834 244.205 163.233 244.205 160.037C244.205 156.841 246.805 154.241 250.001 154.241ZM241.548 175.965C241.562 175.744 241.661 175.542 241.827 175.396L241.919 175.315C242.249 175.76 242.587 176.199 242.938 176.627L242.923 176.64C242.756 176.786 242.535 176.859 242.322 176.845C242.101 176.831 241.899 176.732 241.753 176.566C241.607 176.399 241.533 176.186 241.548 175.965ZM243.893 179.376C243.672 179.362 243.47 179.263 243.323 179.096C243.177 178.93 243.105 178.717 243.118 178.496C243.133 178.276 243.232 178.074 243.398 177.927L243.772 177.598C244.14 178.012 244.515 178.418 244.902 178.812L244.493 179.172C244.327 179.318 244.105 179.394 243.893 179.376ZM246.578 180.931C246.357 180.917 246.155 180.817 246.009 180.651C245.788 180.4 245.751 180.051 245.88 179.764C246.259 180.119 246.647 180.465 247.045 180.803C246.9 180.889 246.74 180.944 246.578 180.931ZM257.853 176.507C257.464 176.785 256.969 176.794 256.516 176.827C256.15 176.854 255.782 176.825 255.428 176.725C255.058 176.621 254.667 176.533 254.307 176.348C254.72 176.94 255.241 177.431 255.87 177.805C255.801 177.969 255.703 178.111 255.575 178.224C255.256 178.507 254.821 178.533 254.418 178.569C254.033 178.603 253.41 178.57 253.035 178.477C252.709 178.396 252.379 178.295 252.067 178.135C252.458 178.696 252.943 179.169 253.527 179.536C253.46 179.664 253.378 179.781 253.272 179.877C252.751 180.35 251.721 180.338 251.077 180.195C250.692 180.109 250.297 179.999 249.928 179.81C250.319 180.372 250.805 180.846 251.384 181.227C251.331 181.372 251.247 181.495 251.136 181.589C251.088 181.629 250.972 181.709 250.893 181.761C250.748 181.761 250.357 181.713 250.006 181.492C248.511 180.427 247.1 179.222 245.814 177.914C244.74 176.822 243.741 175.644 242.832 174.401C241.946 173.189 241.4 171.73 241.436 170.229C241.448 169.718 241.52 169.211 241.662 168.723C240.882 170.039 240.639 171.587 240.76 173.11L236.955 174.747C236.728 174.846 236.54 174.751 236.472 174.705C236.402 174.659 236.241 174.526 236.241 174.277V167.087C236.241 166.821 236.446 166.599 236.711 166.577L245.95 165.831C246.677 166.341 247.503 166.715 248.394 166.923L245.945 168.584C245.26 169.049 245.07 169.983 245.529 170.673C245.985 171.358 246.713 171.792 247.545 171.865C248.199 171.922 248.848 171.706 249.389 171.336L250.615 170.499C251.182 171.064 252.348 171.986 254.177 172.451C255.173 174.507 256.519 175.683 258.276 176.019C258.18 176.19 258.043 176.37 257.853 176.507ZM263.761 175.419C263.761 175.58 263.688 175.728 263.56 175.826C263.433 175.924 263.27 175.954 263.116 175.914L259.223 174.859C259.18 174.847 259.136 174.841 259.092 174.838C257.7 174.759 256.63 174.065 255.773 172.699C256.018 172.717 256.258 172.741 256.521 172.741C257.559 172.741 258.519 172.541 259.375 171.926C259.874 171.568 260.293 171.108 260.609 170.565C260.803 170.245 260.93 169.895 261.039 169.553C260.685 170.119 260.167 170.604 259.573 170.932C258.777 171.37 257.918 171.413 257.031 171.437C256.548 171.449 256.063 171.456 255.582 171.405C252.629 171.089 251.3 169.363 251.235 169.277C251.032 168.997 250.643 168.931 250.357 169.125L248.566 170.348C248.254 170.561 247.877 170.641 247.508 170.569C247.137 170.499 246.815 170.288 246.603 169.976C246.528 169.867 246.557 169.716 246.665 169.642L250.423 167.092C251.701 167.016 252.89 166.606 253.898 165.938C254.918 165.896 255.92 166.041 256.876 166.376L259.851 167.419C259.951 167.455 260.06 167.466 260.163 167.447L263.169 166.971C263.375 166.941 263.515 167.03 263.582 167.087C263.648 167.144 263.761 167.271 263.761 167.476V175.419ZM246.78 162.076C247.29 162.863 248.155 163.364 249.088 163.414C249.143 163.417 249.197 163.419 249.25 163.419C250.14 163.419 250.973 163.023 251.527 162.343L253.61 159.886C253.946 159.489 254.105 158.986 254.057 158.467C254.009 157.949 253.76 157.484 253.358 157.156C252.553 156.5 251.353 156.611 250.682 157.4L249.287 159.039C248.655 158.342 247.613 158.2 246.813 158.719C246.363 159.011 246.053 159.482 245.964 160.012C245.874 160.542 246.012 161.089 246.34 161.512L246.78 162.076ZM247.51 159.792C247.619 159.722 247.742 159.688 247.862 159.688C248.052 159.688 248.238 159.772 248.365 159.93L248.775 160.442C248.895 160.591 249.074 160.679 249.265 160.682C249.45 160.682 249.638 160.602 249.762 160.456L251.657 158.229C251.882 157.966 252.282 157.929 252.549 158.148C252.683 158.257 252.766 158.412 252.782 158.586C252.798 158.758 252.745 158.926 252.633 159.059L250.543 161.525C250.23 161.909 249.747 162.139 249.25 162.139L249.16 162.136C248.631 162.107 248.142 161.824 247.823 161.336L247.352 160.728C247.24 160.584 247.195 160.406 247.226 160.226C247.257 160.046 247.357 159.892 247.51 159.792Z" fill="#064F8E"/>
</g>
</g>
<path opacity="0.18" d="M4 28L114 28" stroke="url(#paint0_linear_1001_1541)" stroke-width="2"/>
<path d="M46 28L114 28" stroke="url(#paint1_linear_1001_1541)" stroke-width="2"/>
<path opacity="0.18" d="M278 28H170" stroke="url(#paint2_linear_1001_1541)" stroke-width="2"/>
<path d="M237 28H170" stroke="url(#paint3_linear_1001_1541)" stroke-width="2"/>
<path opacity="0.18" d="M182 122H242C246.971 122 251 126.029 251 131V140" stroke="#73016D" stroke-width="2"/>
<path opacity="0.18" d="M36 191H133C137.971 191 142 186.971 142 182V164" stroke="#73016D" stroke-width="2"/>
<path d="M86.3333 191C86.3333 188.054 83.9455 185.667 81 185.667C78.0545 185.667 75.6667 188.054 75.6667 191C75.6667 193.946 78.0545 196.333 81 196.333C83.9455 196.333 86.3333 193.946 86.3333 191ZM81 191V192H133V191V190H81V191ZM142 182H143V164H142H141V182H142ZM133 191V192C138.523 192 143 187.523 143 182H142H141C141 186.418 137.418 190 133 190V191Z" fill="url(#paint4_linear_1001_1541)"/>
<path opacity="0.16" d="M142 56L142 84" stroke="white" stroke-width="2"/>
<path d="M142 56L142 84" stroke="#B100A8" stroke-width="2"/>
<path d="M234.333 122C234.333 119.054 231.946 116.667 229 116.667C226.054 116.667 223.667 119.054 223.667 122C223.667 124.946 226.054 127.333 229 127.333C231.946 127.333 234.333 124.946 234.333 122ZM182 122V123H229V122V121H182V122Z" fill="url(#paint5_linear_1001_1541)"/>
<foreignObject x="0" y="158" width="64" height="64"><div xmlns="http://www.w3.org/1999/xhtml" style="backdrop-filter:blur(0px);clip-path:url(#bgblur_4_1001_1541_clip_path);height:100%;width:100%"></div></foreignObject><g filter="url(#filter4_d_1001_1541)" data-figma-bg-blur-radius="0">
<path d="M4 177.2C4 170.479 4 167.119 5.30792 164.552C6.4584 162.294 8.29417 160.458 10.5521 159.308C13.1191 158 16.4794 158 23.2 158H40.8C47.5206 158 50.8809 158 53.4479 159.308C55.7058 160.458 57.5416 162.294 58.6921 164.552C60 167.119 60 170.479 60 177.2V194.8C60 201.521 60 204.881 58.6921 207.448C57.5416 209.706 55.7058 211.542 53.4479 212.692C50.8809 214 47.5206 214 40.8 214H23.2C16.4794 214 13.1191 214 10.5521 212.692C8.29417 211.542 6.4584 209.706 5.30792 207.448C4 204.881 4 201.521 4 194.8V177.2Z" fill="white" shape-rendering="crispEdges"/>
<g clip-path="url(#clip5_1001_1541)">
<path d="M27.9547 180.931C27.9547 180.993 27.9047 181.043 27.8428 181.043H26.5628C26.5009 181.043 26.4509 180.993 26.4509 180.931C26.4509 180.869 26.5009 180.819 26.5628 180.819H27.8428C27.9047 180.819 27.9547 180.869 27.9547 180.931ZM37.4428 180.819H36.1628C36.1009 180.819 36.0509 180.869 36.0509 180.931C36.0509 180.993 36.1009 181.043 36.1628 181.043H37.4428C37.5047 181.043 37.5547 180.993 37.5547 180.931C37.5547 180.869 37.5047 180.819 37.4428 180.819ZM32.9628 181.043H34.2428C34.3047 181.043 34.3547 180.993 34.3547 180.931C34.3547 180.869 34.3047 180.819 34.2428 180.819H32.9628C32.9009 180.819 32.8509 180.869 32.8509 180.931C32.8509 180.993 32.9009 181.043 32.9628 181.043ZM29.7628 181.043H31.0428C31.1047 181.043 31.1547 180.993 31.1547 180.931C31.1547 180.869 31.1047 180.819 31.0428 180.819H29.7628C29.7009 180.819 29.6509 180.869 29.6509 180.931C29.6509 180.993 29.7009 181.043 29.7628 181.043ZM27.8428 190.957H26.5628C26.5009 190.957 26.4509 191.007 26.4509 191.069C26.4509 191.131 26.5009 191.181 26.5628 191.181H27.8428C27.9047 191.181 27.9547 191.131 27.9547 191.069C27.9547 191.007 27.9047 190.957 27.8428 190.957ZM31.0428 190.957H29.7628C29.7009 190.957 29.6509 191.007 29.6509 191.069C29.6509 191.131 29.7009 191.181 29.7628 191.181H31.0428C31.1047 191.181 31.1547 191.131 31.1547 191.069C31.1547 191.007 31.1047 190.957 31.0428 190.957ZM37.4428 190.957H36.1628C36.1009 190.957 36.0509 191.007 36.0509 191.069C36.0509 191.131 36.1009 191.181 36.1628 191.181H37.4428C37.5047 191.181 37.5547 191.131 37.5547 191.069C37.5547 191.007 37.5047 190.957 37.4428 190.957ZM34.2428 190.957H32.9628C32.9009 190.957 32.8509 191.007 32.8509 191.069C32.8509 191.131 32.9009 191.181 32.9628 191.181H34.2428C34.3047 191.181 34.3547 191.131 34.3547 191.069C34.3547 191.007 34.3047 190.957 34.2428 190.957ZM32.6475 187.782C32.7775 188.111 32.6166 188.482 32.2878 188.612C31.9581 188.743 31.5875 188.581 31.4575 188.253L31.1783 187.547H29.6775L29.3984 188.253C29.2991 188.504 29.0581 188.657 28.8031 188.657C28.725 188.657 28.6453 188.643 28.5681 188.612C28.2394 188.482 28.0784 188.111 28.2084 187.782L29.8328 183.675C29.9294 183.431 30.1653 183.271 30.4278 183.271C30.6903 183.271 30.9262 183.431 31.0228 183.675L32.6475 187.782ZM30.6719 186.267L30.4278 185.651L30.1838 186.267H30.6719ZM34.5606 183.072C34.2072 183.072 33.9206 183.359 33.9206 183.712V188.13C33.9206 188.484 34.2072 188.77 34.5606 188.77C34.9141 188.77 35.2006 188.484 35.2006 188.13V183.712C35.2006 183.359 34.9141 183.072 34.5606 183.072ZM40.27 186.64V187.92H41.1778C41.84 187.92 42.3787 188.459 42.3787 189.121V190.474H43.3256C43.5904 189.732 44.2927 189.197 45.1241 189.197C46.1809 189.197 47.0409 190.057 47.0409 191.114C47.0409 192.171 46.1809 193.031 45.1241 193.031C44.2927 193.031 43.5904 192.495 43.3256 191.754H42.2994C41.6375 191.754 41.0987 191.215 41.0987 190.553V189.2H40.27V191.449C40.27 193.004 39.0047 194.269 37.4494 194.269H35.2009V195.097H36.5537C37.2159 195.097 37.7547 195.636 37.7547 196.298V197.324C38.4961 197.589 39.0312 198.292 39.0312 199.123C39.0312 200.18 38.1716 201.04 37.1147 201.04C36.0578 201.04 35.1978 200.18 35.1978 199.123C35.1978 198.292 35.7332 197.589 36.4747 197.324V196.377H35.1216C34.4597 196.377 33.9209 195.839 33.9209 195.177V194.269H32.6409V195.781C33.3825 196.046 33.9178 196.749 33.9178 197.58C33.9178 198.637 33.0578 199.497 32.0009 199.497C30.9441 199.497 30.0841 198.637 30.0841 197.58C30.0841 196.749 30.6194 196.046 31.3609 195.781V194.269H30.0809V195.177C30.0809 195.839 29.5422 196.377 28.8803 196.377H27.5272V197.324C28.2687 197.589 28.8041 198.292 28.8041 199.123C28.8041 200.18 27.9441 201.04 26.8872 201.04C25.8303 201.04 24.9706 200.18 24.9706 199.123C24.9706 198.292 25.5058 197.589 26.2472 197.324V196.298C26.2472 195.636 26.7859 195.097 27.4481 195.097H28.8009V194.269H26.5525C24.9972 194.269 23.7319 193.004 23.7319 191.449V189.2H22.9031V190.553C22.9031 191.215 22.3644 191.754 21.7025 191.754H20.6763C20.4115 192.495 19.7092 193.031 18.8778 193.031C17.8209 193.031 16.9609 192.171 16.9609 191.114C16.9609 190.057 17.8209 189.197 18.8778 189.197C19.7092 189.197 20.4115 189.732 20.6763 190.474H21.6231V189.121C21.6231 188.459 22.1619 187.92 22.8241 187.92H23.7319V186.64H20.6763C20.4115 187.381 19.7092 187.917 18.8778 187.917C17.8209 187.917 16.9609 187.057 16.9609 186C16.9609 184.943 17.8209 184.083 18.8778 184.083C19.7092 184.083 20.4115 184.618 20.6763 185.36H23.7319V184.08H22.8241C22.1619 184.08 21.6231 183.541 21.6231 182.879V181.526H20.6763C20.4115 182.268 19.7092 182.803 18.8778 182.803C17.8209 182.803 16.9609 181.943 16.9609 180.886C16.9609 179.829 17.8209 178.969 18.8778 178.969C19.7092 178.969 20.4115 179.505 20.6763 180.246H21.7025C22.3644 180.246 22.9031 180.785 22.9031 181.447V182.8H23.7319V180.551C23.7319 178.996 24.9972 177.731 26.5525 177.731H28.8009V176.902H27.4481C26.7859 176.902 26.2472 176.364 26.2472 175.702V174.676C25.5058 174.411 24.9706 173.708 24.9706 172.877C24.9706 171.82 25.8303 170.96 26.8872 170.96C27.9441 170.96 28.8041 171.82 28.8041 172.877C28.8041 173.708 28.2687 174.411 27.5272 174.676V175.622H28.8803C29.5422 175.622 30.0809 176.161 30.0809 176.823V177.731H31.3609V176.147C30.6194 175.882 30.0841 175.179 30.0841 174.348C30.0841 173.291 30.9441 172.431 32.0009 172.431C33.0578 172.431 33.9178 173.291 33.9178 174.348C33.9178 175.179 33.3825 175.882 32.6409 176.147V177.731H33.9209V176.823C33.9209 176.161 34.4597 175.622 35.1216 175.622H36.4747V174.676C35.7332 174.411 35.1978 173.708 35.1978 172.877C35.1978 171.82 36.0578 170.96 37.1147 170.96C38.1716 170.96 39.0312 171.82 39.0312 172.877C39.0312 173.708 38.4961 174.411 37.7547 174.676V175.702C37.7547 176.364 37.2159 176.902 36.5537 176.902H35.2009V177.731H37.4494C39.0047 177.731 40.27 178.996 40.27 180.551V182.8H41.0987V181.447C41.0987 180.785 41.6375 180.246 42.2994 180.246H43.3256C43.5904 179.505 44.2927 178.969 45.1241 178.969C46.1809 178.969 47.0409 179.829 47.0409 180.886C47.0409 181.943 46.1809 182.803 45.1241 182.803C44.2927 182.803 43.5904 182.268 43.3256 181.526H42.3787V182.879C42.3787 183.541 41.84 184.08 41.1778 184.08H40.27V185.36H43.3256C43.5904 184.618 44.2927 184.083 45.1241 184.083C46.1809 184.083 47.0409 184.943 47.0409 186C47.0409 187.057 46.1809 187.917 45.1241 187.917C44.2927 187.917 43.5904 187.381 43.3256 186.64H40.27ZM44.4875 186C44.4875 186.351 44.7731 186.637 45.1241 186.637C45.4753 186.637 45.7609 186.351 45.7609 186C45.7609 185.649 45.4753 185.363 45.1241 185.363C44.7731 185.363 44.4875 185.649 44.4875 186ZM44.4875 180.886C44.4875 181.237 44.7731 181.523 45.1241 181.523C45.4753 181.523 45.7609 181.237 45.7609 180.886C45.7609 180.535 45.4753 180.249 45.1241 180.249C44.7731 180.249 44.4875 180.535 44.4875 180.886ZM36.4778 172.877C36.4778 173.228 36.7634 173.514 37.1147 173.514C37.4656 173.514 37.7512 173.228 37.7512 172.877C37.7512 172.526 37.4656 172.24 37.1147 172.24C36.7634 172.24 36.4778 172.526 36.4778 172.877ZM31.3641 174.348C31.3641 174.699 31.6497 174.985 32.0009 174.985C32.3522 174.985 32.6378 174.699 32.6378 174.348C32.6378 173.997 32.3522 173.711 32.0009 173.711C31.6497 173.711 31.3641 173.997 31.3641 174.348ZM26.2506 172.877C26.2506 173.228 26.5362 173.514 26.8872 173.514C27.2384 173.514 27.5241 173.228 27.5241 172.877C27.5241 172.526 27.2384 172.24 26.8872 172.24C26.5362 172.24 26.2506 172.526 26.2506 172.877ZM19.5144 180.886C19.5144 180.535 19.2287 180.249 18.8778 180.249C18.5266 180.249 18.2409 180.535 18.2409 180.886C18.2409 181.237 18.5266 181.523 18.8778 181.523C19.2287 181.523 19.5144 181.237 19.5144 180.886ZM19.5144 186C19.5144 185.649 19.2287 185.363 18.8778 185.363C18.5266 185.363 18.2409 185.649 18.2409 186C18.2409 186.351 18.5266 186.637 18.8778 186.637C19.2287 186.637 19.5144 186.351 19.5144 186ZM19.5144 191.114C19.5144 190.762 19.2287 190.477 18.8778 190.477C18.5266 190.477 18.2409 190.762 18.2409 191.114C18.2409 191.465 18.5266 191.751 18.8778 191.751C19.2287 191.751 19.5144 191.465 19.5144 191.114ZM27.5241 199.123C27.5241 198.772 27.2384 198.486 26.8872 198.486C26.5362 198.486 26.2506 198.772 26.2506 199.123C26.2506 199.474 26.5362 199.76 26.8872 199.76C27.2384 199.76 27.5241 199.474 27.5241 199.123ZM32.6378 197.58C32.6378 197.229 32.3522 196.943 32.0009 196.943C31.6497 196.943 31.3641 197.229 31.3641 197.58C31.3641 197.931 31.6497 198.217 32.0009 198.217C32.3522 198.217 32.6378 197.931 32.6378 197.58ZM37.7512 199.123C37.7512 198.772 37.4656 198.486 37.1147 198.486C36.7634 198.486 36.4778 198.772 36.4778 199.123C36.4778 199.474 36.7634 199.76 37.1147 199.76C37.4656 199.76 37.7512 199.474 37.7512 199.123ZM44.4875 191.114C44.4875 191.465 44.7731 191.751 45.1241 191.751C45.4753 191.751 45.7609 191.465 45.7609 191.114C45.7609 190.762 45.4753 190.477 45.1241 190.477C44.7731 190.477 44.4875 190.762 44.4875 191.114ZM38.99 180.551C38.99 179.702 38.2987 179.011 37.4494 179.011H26.5525C25.7031 179.011 25.0119 179.702 25.0119 180.551V191.449C25.0119 192.298 25.7031 192.989 26.5525 192.989H37.4494C38.2987 192.989 38.99 192.298 38.99 191.449V180.551Z" fill="#064F8E"/>
</g>
</g>
<defs>
<filter id="filter0_d_1001_1541" x="56.7" y="46.7" width="170.6" height="170.6" filterUnits="userSpaceOnUse" color-interpolation-filters="sRGB">
<feFlood flood-opacity="0" result="BackgroundImageFix"/>
<feColorMatrix in="SourceAlpha" type="matrix" values="0 0 0 0 0 0 0 0 0 0 0 0 0 0 0 0 0 0 127 0" result="hardAlpha"/>
<feOffset dy="8"/>
<feGaussianBlur stdDeviation="22.65"/>
<feComposite in2="hardAlpha" operator="out"/>
<feColorMatrix type="matrix" values="0 0 0 0 0.694118 0 0 0 0 0 0 0 0 0 0.658824 0 0 0 0.59 0"/>
<feBlend mode="normal" in2="BackgroundImageFix" result="effect1_dropShadow_1001_1541"/>
<feBlend mode="normal" in="SourceGraphic" in2="effect1_dropShadow_1001_1541" result="shape"/>
</filter>
<filter id="filter1_f_1001_1541" x="84.5" y="-14.5" width="197" height="197" filterUnits="userSpaceOnUse" color-interpolation-filters="sRGB">
<feFlood flood-opacity="0" result="BackgroundImageFix"/>
<feBlend mode="normal" in="SourceGraphic" in2="BackgroundImageFix" result="shape"/>
<feGaussianBlur stdDeviation="31.75" result="effect1_foregroundBlur_1001_1541"/>
</filter>
<filter id="filter2_d_1001_1541" x="110" y="0" width="64" height="64" filterUnits="userSpaceOnUse" color-interpolation-filters="sRGB">
<feFlood flood-opacity="0" result="BackgroundImageFix"/>
<feColorMatrix in="SourceAlpha" type="matrix" values="0 0 0 0 0 0 0 0 0 0 0 0 0 0 0 0 0 0 127 0" result="hardAlpha"/>
<feOffset dy="4"/>
<feGaussianBlur stdDeviation="2"/>
<feComposite in2="hardAlpha" operator="out"/>
<feColorMatrix type="matrix" values="0 0 0 0 0.519231 0 0 0 0 0.426868 0 0 0 0 0.514534 0 0 0 0.11 0"/>
<feBlend mode="normal" in2="BackgroundImageFix" result="effect1_dropShadow_1001_1541"/>
<feBlend mode="normal" in="SourceGraphic" in2="effect1_dropShadow_1001_1541" result="shape"/>
</filter>
<clipPath id="bgblur_1_1001_1541_clip_path" transform="translate(-110 0)"><path d="M114 19.2C114 12.4794 114 9.11905 115.308 6.55211C116.458 4.29417 118.294 2.4584 120.552 1.30792C123.119 0 126.479 0 133.2 0H150.8C157.521 0 160.881 0 163.448 1.30792C165.706 2.4584 167.542 4.29417 168.692 6.55211C170 9.11905 170 12.4794 170 19.2V36.8C170 43.5206 170 46.8809 168.692 49.4479C167.542 51.7058 165.706 53.5416 163.448 54.6921C160.881 56 157.521 56 150.8 56H133.2C126.479 56 123.119 56 120.552 54.6921C118.294 53.5416 116.458 51.7058 115.308 49.4479C114 46.8809 114 43.5206 114 36.8V19.2Z"/>
</clipPath><filter id="filter3_d_1001_1541" x="218" y="140" width="64" height="64" filterUnits="userSpaceOnUse" color-interpolation-filters="sRGB">
<feFlood flood-opacity="0" result="BackgroundImageFix"/>
<feColorMatrix in="SourceAlpha" type="matrix" values="0 0 0 0 0 0 0 0 0 0 0 0 0 0 0 0 0 0 127 0" result="hardAlpha"/>
<feOffset dy="4"/>
<feGaussianBlur stdDeviation="2"/>
<feComposite in2="hardAlpha" operator="out"/>
<feColorMatrix type="matrix" values="0 0 0 0 0.519231 0 0 0 0 0.426868 0 0 0 0 0.514534 0 0 0 0.11 0"/>
<feBlend mode="normal" in2="BackgroundImageFix" result="effect1_dropShadow_1001_1541"/>
<feBlend mode="normal" in="SourceGraphic" in2="effect1_dropShadow_1001_1541" result="shape"/>
</filter>
<clipPath id="bgblur_2_1001_1541_clip_path" transform="translate(-218 -140)"><path d="M222 159.2C222 152.479 222 149.119 223.308 146.552C224.458 144.294 226.294 142.458 228.552 141.308C231.119 140 234.479 140 241.2 140H258.8C265.521 140 268.881 140 271.448 141.308C273.706 142.458 275.542 144.294 276.692 146.552C278 149.119 278 152.479 278 159.2V176.8C278 183.521 278 186.881 276.692 189.448C275.542 191.706 273.706 193.542 271.448 194.692C268.881 196 265.521 196 258.8 196H241.2C234.479 196 231.119 196 228.552 194.692C226.294 193.542 224.458 191.706 223.308 189.448C222 186.881 222 183.521 222 176.8V159.2Z"/>
</clipPath><filter id="filter4_d_1001_1541" x="0" y="158" width="64" height="64" filterUnits="userSpaceOnUse" color-interpolation-filters="sRGB">
<feFlood flood-opacity="0" result="BackgroundImageFix"/>
<feColorMatrix in="SourceAlpha" type="matrix" values="0 0 0 0 0 0 0 0 0 0 0 0 0 0 0 0 0 0 127 0" result="hardAlpha"/>
<feOffset dy="4"/>
<feGaussianBlur stdDeviation="2"/>
<feComposite in2="hardAlpha" operator="out"/>
<feColorMatrix type="matrix" values="0 0 0 0 0.519231 0 0 0 0 0.426868 0 0 0 0 0.514534 0 0 0 0.11 0"/>
<feBlend mode="normal" in2="BackgroundImageFix" result="effect1_dropShadow_1001_1541"/>
<feBlend mode="normal" in="SourceGraphic" in2="effect1_dropShadow_1001_1541" result="shape"/>
</filter>
<clipPath id="bgblur_4_1001_1541_clip_path" transform="translate(0 -158)"><path d="M4 177.2C4 170.479 4 167.119 5.30792 164.552C6.4584 162.294 8.29417 160.458 10.5521 159.308C13.1191 158 16.4794 158 23.2 158H40.8C47.5206 158 50.8809 158 53.4479 159.308C55.7058 160.458 57.5416 162.294 58.6921 164.552C60 167.119 60 170.479 60 177.2V194.8C60 201.521 60 204.881 58.6921 207.448C57.5416 209.706 55.7058 211.542 53.4479 212.692C50.8809 214 47.5206 214 40.8 214H23.2C16.4794 214 13.1191 214 10.5521 212.692C8.29417 211.542 6.4584 209.706 5.30792 207.448C4 204.881 4 201.521 4 194.8V177.2Z"/>
</clipPath><linearGradient id="paint0_linear_1001_1541" x1="114" y1="27.5" x2="4" y2="27.5" gradientUnits="userSpaceOnUse">
<stop stop-color="#D902CE"/>
<stop offset="1" stop-color="#D902CE" stop-opacity="0"/>
</linearGradient>
<linearGradient id="paint1_linear_1001_1541" x1="114" y1="27.5" x2="46" y2="27.5" gradientUnits="userSpaceOnUse">
<stop stop-color="#B100A8"/>
<stop offset="1" stop-color="#B100A8" stop-opacity="0"/>
</linearGradient>
<linearGradient id="paint2_linear_1001_1541" x1="170" y1="28.5" x2="278" y2="28.5" gradientUnits="userSpaceOnUse">
<stop stop-color="#D902CE"/>
<stop offset="1" stop-color="#D902CE" stop-opacity="0"/>
</linearGradient>
<linearGradient id="paint3_linear_1001_1541" x1="170" y1="28.5" x2="237" y2="28.5" gradientUnits="userSpaceOnUse">
<stop stop-color="#B100A8"/>
<stop offset="1" stop-color="#B100A8" stop-opacity="0"/>
</linearGradient>
<linearGradient id="paint4_linear_1001_1541" x1="163" y1="177.5" x2="81" y2="177.5" gradientUnits="userSpaceOnUse">
<stop stop-color="#B100A8" stop-opacity="0"/>
<stop offset="1" stop-color="#B100A8"/>
</linearGradient>
<linearGradient id="paint5_linear_1001_1541" x1="229" y1="121.5" x2="182" y2="121.5" gradientUnits="userSpaceOnUse">
<stop stop-color="#B100A8"/>
<stop offset="1" stop-color="#B100A8" stop-opacity="0"/>
</linearGradient>
<clipPath id="clip0_1001_1541">
<rect x="102" y="84" width="80" height="80" rx="12" fill="white"/>
</clipPath>
<clipPath id="clip3_1001_1541">
<rect width="32" height="32" fill="white" transform="translate(234 152)"/>
</clipPath>
<clipPath id="clip5_1001_1541">
<rect width="32" height="32" fill="white" transform="translate(16 170)"/>
</clipPath>
</defs>
</svg>
